# xmcd
#
# Track frame offsets: 
#        150
#        33576
#        60064
#        95716
#        111960
#        137209
#        171885
#        203137
#        231483
#        248375
#        272836
#
# Disc length: 4169 seconds
#
# Revision: 0
# Processed by: cddbd v1.5.2PL0 Copyright (c) Steve Scherf et al.
# Submitted via: ExactAudioCopy v0.99pb3
#
DISCID=9810470b
DTITLE=Mick Martin and The Blues Rockers - Live At The Sutter Street Sal
DTITLE=oon
DYEAR=1997
DGENRE=Blues
TTITLE0=Blues In My Soul
TTITLE1=Find That Girl
TTITLE2=Voodoo Queen
TTITLE3=Sugar Pie
TTITLE4=Forever Ended Today
TTITLE5=Whiskey
TTITLE6=Heartbreaker
TTITLE7=Sugar Man
TTITLE8=Clean and Mean
TTITLE9=There's No Door
TTITLE10=Got To Play The Blues - Blues Are All Right
EXTD=
EXTT0=
EXTT1=
EXTT2=
EXTT3=
EXTT4=
EXTT5=
EXTT6=
EXTT7=
EXTT8=
EXTT9=
EXTT10=
PLAYORDER=
